<svg width="425.0" height="500.0" xmlns="http://www.w3.org/2000/svg"><svg height="500.0" width="425.0" class="aligned-left-top" x="0" y="0"><svg width="1" height="500.0" x="0" y="0"><line x1="0.0" y1="500.0" x2="0.0" y2="300.0" style="stroke:black;stroke-width:1" /></svg><svg width="100.0" height="500.0" x="0" y="0"><line x1="0.0" y1="300.0" x2="100.0" y2="500.0" style="stroke:black;stroke-width:1" /></svg><svg width="100.0" height="500.0" x="0" y="0"><line x1="100.0" y1="500.0" x2="0.0" y2="500.0" style="stroke:black;stroke-width:1" /></svg><svg width="250.0" height="1" x="0" y="0"><line x1="250.0" y1="0.0" x2="200.0" y2="0.0" style="stroke:black;stroke-width:1" /></svg><svg width="250.0" height="400.0" x="0" y="0"><line x1="200.0" y1="0.0" x2="250.0" y2="400.0" style="stroke:black;stroke-width:1" /></svg><svg width="250.0" height="400.0" x="0" y="0"><line x1="250.0" y1="400.0" x2="250.0" y2="0.0" style="stroke:black;stroke-width:1" /></svg><svg width="375.0" height="500.0" x="0" y="0"><line x1="375.0" y1="500.0" x2="375.0" y2="300.0" style="stroke:black;stroke-width:1" /></svg><svg width="375.0" height="500.0" x="0" y="0"><line x1="375.0" y1="300.0" x2="275.0" y2="500.0" style="stroke:black;stroke-width:1" /></svg><svg width="375.0" height="500.0" x="0" y="0"><line x1="275.0" y1="500.0" x2="375.0" y2="500.0" style="stroke:black;stroke-width:1" /></svg><svg width="425.0" height="500.0" x="0" y="0"><line x1="375.0" y1="500.0" x2="425.0" y2="500.0" style="stroke:black;stroke-width:1" /></svg><svg width="425.0" height="500.0" x="0" y="0"><line x1="425.0" y1="500.0" x2="375.0" y2="100.0" style="stroke:black;stroke-width:1" /></svg><svg width="375.0" height="500.0" x="0" y="0"><line x1="375.0" y1="100.0" x2="375.0" y2="500.0" style="stroke:black;stroke-width:1" /></svg></svg></svg>