<?xml version="1.0" encoding="UTF-8" standalone="no"?>
<!DOCTYPE svg PUBLIC "-//W3C//DTD SVG 1.1//EN"
 "http://www.w3.org/Graphics/SVG/1.1/DTD/svg11.dtd">
<!-- Generated by graphviz version 2.50.0 (0)
 -->
<!-- Pages: 1 -->
<svg width="898pt" height="1124pt"
 viewBox="0.00 0.00 897.84 1124.00" xmlns="http://www.w3.org/2000/svg" xmlns:xlink="http://www.w3.org/1999/xlink">
<g id="graph0" class="graph" transform="scale(1 1) rotate(0) translate(4 1120)">
<polygon fill="white" stroke="transparent" points="-4,4 -4,-1120 893.84,-1120 893.84,4 -4,4"/>
<!-- (0 11 5) -->
<g id="node1" class="node">
<title>(0 11 5)</title>
<ellipse fill="none" stroke="black" cx="729.8" cy="-1098" rx="46.59" ry="18"/>
<text text-anchor="middle" x="729.8" y="-1094.3" font-family="Times,serif" font-size="14.00">(0 11 5)</text>
</g>
<!-- (1 11 4) -->
<g id="node2" class="node">
<title>(1 11 4)</title>
<ellipse fill="none" stroke="black" cx="669.8" cy="-1026" rx="46.59" ry="18"/>
<text text-anchor="middle" x="669.8" y="-1022.3" font-family="Times,serif" font-size="14.00">(1 11 4)</text>
</g>
<!-- (0 11 5)&#45;&gt;(1 11 4) -->
<g id="edge1" class="edge">
<title>(0 11 5)&#45;&gt;(1 11 4)</title>
<path fill="none" stroke="black" d="M715.88,-1080.76C708.42,-1072.06 699.06,-1061.15 690.74,-1051.43"/>
<polygon fill="black" stroke="black" points="693.22,-1048.95 684.05,-1043.63 687.9,-1053.5 693.22,-1048.95"/>
</g>
<!-- (54 &#45;39 5) -->
<g id="node55" class="node">
<title>(54 &#45;39 5)</title>
<ellipse fill="none" stroke="black" cx="790.8" cy="-1026" rx="55.79" ry="18"/>
<text text-anchor="middle" x="790.8" y="-1022.3" font-family="Times,serif" font-size="14.00">(54 &#45;39 5)</text>
</g>
<!-- (0 11 5)&#45;&gt;(54 &#45;39 5) -->
<g id="edge54" class="edge">
<title>(0 11 5)&#45;&gt;(54 &#45;39 5)</title>
<path fill="none" stroke="black" d="M743.94,-1080.76C751.53,-1072.06 761.04,-1061.15 769.5,-1051.43"/>
<polygon fill="black" stroke="black" points="772.37,-1053.47 776.3,-1043.63 767.09,-1048.87 772.37,-1053.47"/>
</g>
<!-- (2 11 3) -->
<g id="node3" class="node">
<title>(2 11 3)</title>
<ellipse fill="none" stroke="black" cx="609.8" cy="-954" rx="46.59" ry="18"/>
<text text-anchor="middle" x="609.8" y="-950.3" font-family="Times,serif" font-size="14.00">(2 11 3)</text>
</g>
<!-- (1 11 4)&#45;&gt;(2 11 3) -->
<g id="edge2" class="edge">
<title>(1 11 4)&#45;&gt;(2 11 3)</title>
<path fill="none" stroke="black" d="M655.88,-1008.76C648.42,-1000.06 639.06,-989.15 630.74,-979.43"/>
<polygon fill="black" stroke="black" points="633.22,-976.95 624.05,-971.63 627.9,-981.5 633.22,-976.95"/>
</g>
<!-- (53 &#45;14 4) -->
<g id="node54" class="node">
<title>(53 &#45;14 4)</title>
<ellipse fill="none" stroke="black" cx="730.8" cy="-954" rx="55.79" ry="18"/>
<text text-anchor="middle" x="730.8" y="-950.3" font-family="Times,serif" font-size="14.00">(53 &#45;14 4)</text>
</g>
<!-- (1 11 4)&#45;&gt;(53 &#45;14 4) -->
<g id="edge53" class="edge">
<title>(1 11 4)&#45;&gt;(53 &#45;14 4)</title>
<path fill="none" stroke="black" d="M683.94,-1008.76C691.53,-1000.06 701.04,-989.15 709.5,-979.43"/>
<polygon fill="black" stroke="black" points="712.37,-981.47 716.3,-971.63 707.09,-976.87 712.37,-981.47"/>
</g>
<!-- (3 11 2) -->
<g id="node4" class="node">
<title>(3 11 2)</title>
<ellipse fill="none" stroke="black" cx="438.8" cy="-882" rx="46.59" ry="18"/>
<text text-anchor="middle" x="438.8" y="-878.3" font-family="Times,serif" font-size="14.00">(3 11 2)</text>
</g>
<!-- (2 11 3)&#45;&gt;(3 11 2) -->
<g id="edge3" class="edge">
<title>(2 11 3)&#45;&gt;(3 11 2)</title>
<path fill="none" stroke="black" d="M578.83,-940.32C550.86,-928.88 509.54,-911.96 479.03,-899.47"/>
<polygon fill="black" stroke="black" points="480.11,-896.13 469.53,-895.58 477.46,-902.61 480.11,-896.13"/>
</g>
<!-- (46 1 3) -->
<g id="node47" class="node">
<title>(46 1 3)</title>
<ellipse fill="none" stroke="black" cx="724.8" cy="-882" rx="46.59" ry="18"/>
<text text-anchor="middle" x="724.8" y="-878.3" font-family="Times,serif" font-size="14.00">(46 1 3)</text>
</g>
<!-- (2 11 3)&#45;&gt;(46 1 3) -->
<g id="edge46" class="edge">
<title>(2 11 3)&#45;&gt;(46 1 3)</title>
<path fill="none" stroke="black" d="M633.62,-938.5C650.47,-928.24 673.28,-914.36 691.86,-903.05"/>
<polygon fill="black" stroke="black" points="693.88,-905.92 700.6,-897.73 690.24,-899.94 693.88,-905.92"/>
</g>
<!-- (4 11 1) -->
<g id="node5" class="node">
<title>(4 11 1)</title>
<ellipse fill="none" stroke="black" cx="158.8" cy="-810" rx="46.59" ry="18"/>
<text text-anchor="middle" x="158.8" y="-806.3" font-family="Times,serif" font-size="14.00">(4 11 1)</text>
</g>
<!-- (3 11 2)&#45;&gt;(4 11 1) -->
<g id="edge4" class="edge">
<title>(3 11 2)&#45;&gt;(4 11 1)</title>
<path fill="none" stroke="black" d="M400.74,-871.49C350.49,-858.92 261.96,-836.79 207.06,-823.07"/>
<polygon fill="black" stroke="black" points="207.77,-819.63 197.22,-820.6 206.07,-826.43 207.77,-819.63"/>
</g>
<!-- (27 6 2) -->
<g id="node28" class="node">
<title>(27 6 2)</title>
<ellipse fill="none" stroke="black" cx="438.8" cy="-810" rx="46.59" ry="18"/>
<text text-anchor="middle" x="438.8" y="-806.3" font-family="Times,serif" font-size="14.00">(27 6 2)</text>
</g>
<!-- (3 11 2)&#45;&gt;(27 6 2) -->
<g id="edge27" class="edge">
<title>(3 11 2)&#45;&gt;(27 6 2)</title>
<path fill="none" stroke="black" d="M438.8,-863.7C438.8,-855.98 438.8,-846.71 438.8,-838.11"/>
<polygon fill="black" stroke="black" points="442.3,-838.1 438.8,-828.1 435.3,-838.1 442.3,-838.1"/>
</g>
<!-- (5 11 0) -->
<g id="node6" class="node">
<title>(5 11 0)</title>
<ellipse fill="none" stroke="black" cx="46.8" cy="-738" rx="46.59" ry="18"/>
<text text-anchor="middle" x="46.8" y="-734.3" font-family="Times,serif" font-size="14.00">(5 11 0)</text>
</g>
<!-- (4 11 1)&#45;&gt;(5 11 0) -->
<g id="edge5" class="edge">
<title>(4 11 1)&#45;&gt;(5 11 0)</title>
<path fill="none" stroke="black" d="M135.32,-794.33C119.04,-784.15 97.15,-770.47 79.21,-759.26"/>
<polygon fill="black" stroke="black" points="80.58,-755.99 70.24,-753.65 76.87,-761.92 80.58,-755.99"/>
</g>
<!-- (6 10 1) -->
<g id="node7" class="node">
<title>(6 10 1)</title>
<ellipse fill="none" stroke="black" cx="158.8" cy="-738" rx="46.59" ry="18"/>
<text text-anchor="middle" x="158.8" y="-734.3" font-family="Times,serif" font-size="14.00">(6 10 1)</text>
</g>
<!-- (4 11 1)&#45;&gt;(6 10 1) -->
<g id="edge6" class="edge">
<title>(4 11 1)&#45;&gt;(6 10 1)</title>
<path fill="none" stroke="black" d="M158.8,-791.7C158.8,-783.98 158.8,-774.71 158.8,-766.11"/>
<polygon fill="black" stroke="black" points="162.3,-766.1 158.8,-756.1 155.3,-766.1 162.3,-766.1"/>
</g>
<!-- (7 10 0) -->
<g id="node8" class="node">
<title>(7 10 0)</title>
<ellipse fill="none" stroke="black" cx="52.8" cy="-666" rx="46.59" ry="18"/>
<text text-anchor="middle" x="52.8" y="-662.3" font-family="Times,serif" font-size="14.00">(7 10 0)</text>
</g>
<!-- (6 10 1)&#45;&gt;(7 10 0) -->
<g id="edge7" class="edge">
<title>(6 10 1)&#45;&gt;(7 10 0)</title>
<path fill="none" stroke="black" d="M136.32,-722.15C121,-712.04 100.52,-698.52 83.67,-687.39"/>
<polygon fill="black" stroke="black" points="85.52,-684.41 75.24,-681.82 81.66,-690.26 85.52,-684.41"/>
</g>
<!-- (8 9 1) -->
<g id="node9" class="node">
<title>(8 9 1)</title>
<ellipse fill="none" stroke="black" cx="158.8" cy="-666" rx="40.89" ry="18"/>
<text text-anchor="middle" x="158.8" y="-662.3" font-family="Times,serif" font-size="14.00">(8 9 1)</text>
</g>
<!-- (6 10 1)&#45;&gt;(8 9 1) -->
<g id="edge8" class="edge">
<title>(6 10 1)&#45;&gt;(8 9 1)</title>
<path fill="none" stroke="black" d="M158.8,-719.7C158.8,-711.98 158.8,-702.71 158.8,-694.11"/>
<polygon fill="black" stroke="black" points="162.3,-694.1 158.8,-684.1 155.3,-694.1 162.3,-694.1"/>
</g>
<!-- (9 9 0) -->
<g id="node10" class="node">
<title>(9 9 0)</title>
<ellipse fill="none" stroke="black" cx="52.8" cy="-594" rx="40.89" ry="18"/>
<text text-anchor="middle" x="52.8" y="-590.3" font-family="Times,serif" font-size="14.00">(9 9 0)</text>
</g>
<!-- (8 9 1)&#45;&gt;(9 9 0) -->
<g id="edge9" class="edge">
<title>(8 9 1)&#45;&gt;(9 9 0)</title>
<path fill="none" stroke="black" d="M137.09,-650.67C121.51,-640.38 100.32,-626.38 83.08,-615"/>
<polygon fill="black" stroke="black" points="84.75,-611.91 74.47,-609.32 80.89,-617.75 84.75,-611.91"/>
</g>
<!-- (10 8 1) -->
<g id="node11" class="node">
<title>(10 8 1)</title>
<ellipse fill="none" stroke="black" cx="158.8" cy="-594" rx="46.59" ry="18"/>
<text text-anchor="middle" x="158.8" y="-590.3" font-family="Times,serif" font-size="14.00">(10 8 1)</text>
</g>
<!-- (8 9 1)&#45;&gt;(10 8 1) -->
<g id="edge10" class="edge">
<title>(8 9 1)&#45;&gt;(10 8 1)</title>
<path fill="none" stroke="black" d="M158.8,-647.7C158.8,-639.98 158.8,-630.71 158.8,-622.11"/>
<polygon fill="black" stroke="black" points="162.3,-622.1 158.8,-612.1 155.3,-622.1 162.3,-622.1"/>
</g>
<!-- (11 8 0) -->
<g id="node12" class="node">
<title>(11 8 0)</title>
<ellipse fill="none" stroke="black" cx="74.8" cy="-522" rx="46.59" ry="18"/>
<text text-anchor="middle" x="74.8" y="-518.3" font-family="Times,serif" font-size="14.00">(11 8 0)</text>
</g>
<!-- (10 8 1)&#45;&gt;(11 8 0) -->
<g id="edge11" class="edge">
<title>(10 8 1)&#45;&gt;(11 8 0)</title>
<path fill="none" stroke="black" d="M140.15,-577.46C128.81,-568.02 114.14,-555.79 101.58,-545.32"/>
<polygon fill="black" stroke="black" points="103.6,-542.45 93.68,-538.73 99.12,-547.82 103.6,-542.45"/>
</g>
<!-- (12 7 1) -->
<g id="node13" class="node">
<title>(12 7 1)</title>
<ellipse fill="none" stroke="black" cx="186.8" cy="-522" rx="46.59" ry="18"/>
<text text-anchor="middle" x="186.8" y="-518.3" font-family="Times,serif" font-size="14.00">(12 7 1)</text>
</g>
<!-- (10 8 1)&#45;&gt;(12 7 1) -->
<g id="edge12" class="edge">
<title>(10 8 1)&#45;&gt;(12 7 1)</title>
<path fill="none" stroke="black" d="M165.57,-576.05C168.73,-568.18 172.55,-558.62 176.08,-549.79"/>
<polygon fill="black" stroke="black" points="179.42,-550.86 179.89,-540.28 172.92,-548.26 179.42,-550.86"/>
</g>
<!-- (13 7 0) -->
<g id="node14" class="node">
<title>(13 7 0)</title>
<ellipse fill="none" stroke="black" cx="158.8" cy="-450" rx="46.59" ry="18"/>
<text text-anchor="middle" x="158.8" y="-446.3" font-family="Times,serif" font-size="14.00">(13 7 0)</text>
</g>
<!-- (12 7 1)&#45;&gt;(13 7 0) -->
<g id="edge13" class="edge">
<title>(12 7 1)&#45;&gt;(13 7 0)</title>
<path fill="none" stroke="black" d="M180.02,-504.05C176.87,-496.18 173.04,-486.62 169.51,-477.79"/>
<polygon fill="black" stroke="black" points="172.67,-476.26 165.71,-468.28 166.17,-478.86 172.67,-476.26"/>
</g>
<!-- (14 6 1) -->
<g id="node15" class="node">
<title>(14 6 1)</title>
<ellipse fill="none" stroke="black" cx="270.8" cy="-450" rx="46.59" ry="18"/>
<text text-anchor="middle" x="270.8" y="-446.3" font-family="Times,serif" font-size="14.00">(14 6 1)</text>
</g>
<!-- (12 7 1)&#45;&gt;(14 6 1) -->
<g id="edge14" class="edge">
<title>(12 7 1)&#45;&gt;(14 6 1)</title>
<path fill="none" stroke="black" d="M205.44,-505.46C216.78,-496.02 231.45,-483.79 244.02,-473.32"/>
<polygon fill="black" stroke="black" points="246.47,-475.82 251.92,-466.73 241.99,-470.45 246.47,-475.82"/>
</g>
<!-- (15 6 0) -->
<g id="node16" class="node">
<title>(15 6 0)</title>
<ellipse fill="none" stroke="black" cx="270.8" cy="-378" rx="46.59" ry="18"/>
<text text-anchor="middle" x="270.8" y="-374.3" font-family="Times,serif" font-size="14.00">(15 6 0)</text>
</g>
<!-- (14 6 1)&#45;&gt;(15 6 0) -->
<g id="edge15" class="edge">
<title>(14 6 1)&#45;&gt;(15 6 0)</title>
<path fill="none" stroke="black" d="M270.8,-431.7C270.8,-423.98 270.8,-414.71 270.8,-406.11"/>
<polygon fill="black" stroke="black" points="274.3,-406.1 270.8,-396.1 267.3,-406.1 274.3,-406.1"/>
</g>
<!-- (16 5 1) -->
<g id="node17" class="node">
<title>(16 5 1)</title>
<ellipse fill="none" stroke="black" cx="382.8" cy="-378" rx="46.59" ry="18"/>
<text text-anchor="middle" x="382.8" y="-374.3" font-family="Times,serif" font-size="14.00">(16 5 1)</text>
</g>
<!-- (14 6 1)&#45;&gt;(16 5 1) -->
<g id="edge16" class="edge">
<title>(14 6 1)&#45;&gt;(16 5 1)</title>
<path fill="none" stroke="black" d="M294.27,-434.33C310.55,-424.15 332.44,-410.47 350.38,-399.26"/>
<polygon fill="black" stroke="black" points="352.72,-401.92 359.35,-393.65 349.01,-395.99 352.72,-401.92"/>
</g>
<!-- (17 5 0) -->
<g id="node18" class="node">
<title>(17 5 0)</title>
<ellipse fill="none" stroke="black" cx="382.8" cy="-306" rx="46.59" ry="18"/>
<text text-anchor="middle" x="382.8" y="-302.3" font-family="Times,serif" font-size="14.00">(17 5 0)</text>
</g>
<!-- (16 5 1)&#45;&gt;(17 5 0) -->
<g id="edge17" class="edge">
<title>(16 5 1)&#45;&gt;(17 5 0)</title>
<path fill="none" stroke="black" d="M382.8,-359.7C382.8,-351.98 382.8,-342.71 382.8,-334.11"/>
<polygon fill="black" stroke="black" points="386.3,-334.1 382.8,-324.1 379.3,-334.1 386.3,-334.1"/>
</g>
<!-- (18 4 1) -->
<g id="node19" class="node">
<title>(18 4 1)</title>
<ellipse fill="none" stroke="black" cx="494.8" cy="-306" rx="46.59" ry="18"/>
<text text-anchor="middle" x="494.8" y="-302.3" font-family="Times,serif" font-size="14.00">(18 4 1)</text>
</g>
<!-- (16 5 1)&#45;&gt;(18 4 1) -->
<g id="edge18" class="edge">
<title>(16 5 1)&#45;&gt;(18 4 1)</title>
<path fill="none" stroke="black" d="M406.27,-362.33C422.55,-352.15 444.44,-338.47 462.38,-327.26"/>
<polygon fill="black" stroke="black" points="464.72,-329.92 471.35,-321.65 461.01,-323.99 464.72,-329.92"/>
</g>
<!-- (19 4 0) -->
<g id="node20" class="node">
<title>(19 4 0)</title>
<ellipse fill="none" stroke="black" cx="438.8" cy="-234" rx="46.59" ry="18"/>
<text text-anchor="middle" x="438.8" y="-230.3" font-family="Times,serif" font-size="14.00">(19 4 0)</text>
</g>
<!-- (18 4 1)&#45;&gt;(19 4 0) -->
<g id="edge19" class="edge">
<title>(18 4 1)&#45;&gt;(19 4 0)</title>
<path fill="none" stroke="black" d="M481.52,-288.41C474.62,-279.78 466.05,-269.06 458.39,-259.5"/>
<polygon fill="black" stroke="black" points="460.95,-257.09 451.97,-251.47 455.49,-261.47 460.95,-257.09"/>
</g>
<!-- (20 3 1) -->
<g id="node21" class="node">
<title>(20 3 1)</title>
<ellipse fill="none" stroke="black" cx="550.8" cy="-234" rx="46.59" ry="18"/>
<text text-anchor="middle" x="550.8" y="-230.3" font-family="Times,serif" font-size="14.00">(20 3 1)</text>
</g>
<!-- (18 4 1)&#45;&gt;(20 3 1) -->
<g id="edge20" class="edge">
<title>(18 4 1)&#45;&gt;(20 3 1)</title>
<path fill="none" stroke="black" d="M508.07,-288.41C514.97,-279.78 523.55,-269.06 531.2,-259.5"/>
<polygon fill="black" stroke="black" points="534.11,-261.47 537.62,-251.47 528.64,-257.09 534.11,-261.47"/>
</g>
<!-- (21 3 0) -->
<g id="node22" class="node">
<title>(21 3 0)</title>
<ellipse fill="none" stroke="black" cx="494.8" cy="-162" rx="46.59" ry="18"/>
<text text-anchor="middle" x="494.8" y="-158.3" font-family="Times,serif" font-size="14.00">(21 3 0)</text>
</g>
<!-- (20 3 1)&#45;&gt;(21 3 0) -->
<g id="edge21" class="edge">
<title>(20 3 1)&#45;&gt;(21 3 0)</title>
<path fill="none" stroke="black" d="M537.52,-216.41C530.62,-207.78 522.05,-197.06 514.39,-187.5"/>
<polygon fill="black" stroke="black" points="516.95,-185.09 507.97,-179.47 511.49,-189.47 516.95,-185.09"/>
</g>
<!-- (22 2 1) -->
<g id="node23" class="node">
<title>(22 2 1)</title>
<ellipse fill="none" stroke="black" cx="606.8" cy="-162" rx="46.59" ry="18"/>
<text text-anchor="middle" x="606.8" y="-158.3" font-family="Times,serif" font-size="14.00">(22 2 1)</text>
</g>
<!-- (20 3 1)&#45;&gt;(22 2 1) -->
<g id="edge22" class="edge">
<title>(20 3 1)&#45;&gt;(22 2 1)</title>
<path fill="none" stroke="black" d="M564.07,-216.41C570.97,-207.78 579.55,-197.06 587.2,-187.5"/>
<polygon fill="black" stroke="black" points="590.11,-189.47 593.62,-179.47 584.64,-185.09 590.11,-189.47"/>
</g>
<!-- (23 2 0) -->
<g id="node24" class="node">
<title>(23 2 0)</title>
<ellipse fill="none" stroke="black" cx="550.8" cy="-90" rx="46.59" ry="18"/>
<text text-anchor="middle" x="550.8" y="-86.3" font-family="Times,serif" font-size="14.00">(23 2 0)</text>
</g>
<!-- (22 2 1)&#45;&gt;(23 2 0) -->
<g id="edge23" class="edge">
<title>(22 2 1)&#45;&gt;(23 2 0)</title>
<path fill="none" stroke="black" d="M593.52,-144.41C586.62,-135.78 578.05,-125.06 570.39,-115.5"/>
<polygon fill="black" stroke="black" points="572.95,-113.09 563.97,-107.47 567.49,-117.47 572.95,-113.09"/>
</g>
<!-- (24 1 1) -->
<g id="node25" class="node">
<title>(24 1 1)</title>
<ellipse fill="none" stroke="black" cx="662.8" cy="-90" rx="46.59" ry="18"/>
<text text-anchor="middle" x="662.8" y="-86.3" font-family="Times,serif" font-size="14.00">(24 1 1)</text>
</g>
<!-- (22 2 1)&#45;&gt;(24 1 1) -->
<g id="edge24" class="edge">
<title>(22 2 1)&#45;&gt;(24 1 1)</title>
<path fill="none" stroke="black" d="M620.07,-144.41C626.97,-135.78 635.55,-125.06 643.2,-115.5"/>
<polygon fill="black" stroke="black" points="646.11,-117.47 649.62,-107.47 640.64,-113.09 646.11,-117.47"/>
</g>
<!-- (25 1 0) -->
<g id="node26" class="node">
<title>(25 1 0)</title>
<ellipse fill="none" stroke="black" cx="606.8" cy="-18" rx="46.59" ry="18"/>
<text text-anchor="middle" x="606.8" y="-14.3" font-family="Times,serif" font-size="14.00">(25 1 0)</text>
</g>
<!-- (24 1 1)&#45;&gt;(25 1 0) -->
<g id="edge25" class="edge">
<title>(24 1 1)&#45;&gt;(25 1 0)</title>
<path fill="none" stroke="black" d="M649.52,-72.41C642.62,-63.78 634.05,-53.06 626.39,-43.5"/>
<polygon fill="black" stroke="black" points="628.95,-41.09 619.97,-35.47 623.49,-45.47 628.95,-41.09"/>
</g>
<!-- (26 0 1) -->
<g id="node27" class="node">
<title>(26 0 1)</title>
<ellipse fill="none" stroke="black" cx="718.8" cy="-18" rx="46.59" ry="18"/>
<text text-anchor="middle" x="718.8" y="-14.3" font-family="Times,serif" font-size="14.00">(26 0 1)</text>
</g>
<!-- (24 1 1)&#45;&gt;(26 0 1) -->
<g id="edge26" class="edge">
<title>(24 1 1)&#45;&gt;(26 0 1)</title>
<path fill="none" stroke="black" d="M676.07,-72.41C682.97,-63.78 691.55,-53.06 699.2,-43.5"/>
<polygon fill="black" stroke="black" points="702.11,-45.47 705.62,-35.47 696.64,-41.09 702.11,-45.47"/>
</g>
<!-- (28 6 1) -->
<g id="node29" class="node">
<title>(28 6 1)</title>
<ellipse fill="none" stroke="black" cx="382.8" cy="-738" rx="46.59" ry="18"/>
<text text-anchor="middle" x="382.8" y="-734.3" font-family="Times,serif" font-size="14.00">(28 6 1)</text>
</g>
<!-- (27 6 2)&#45;&gt;(28 6 1) -->
<g id="edge28" class="edge">
<title>(27 6 2)&#45;&gt;(28 6 1)</title>
<path fill="none" stroke="black" d="M425.52,-792.41C418.62,-783.78 410.05,-773.06 402.39,-763.5"/>
<polygon fill="black" stroke="black" points="404.95,-761.09 395.97,-755.47 399.49,-765.47 404.95,-761.09"/>
</g>
<!-- (41 1 2) -->
<g id="node42" class="node">
<title>(41 1 2)</title>
<ellipse fill="none" stroke="black" cx="494.8" cy="-738" rx="46.59" ry="18"/>
<text text-anchor="middle" x="494.8" y="-734.3" font-family="Times,serif" font-size="14.00">(41 1 2)</text>
</g>
<!-- (27 6 2)&#45;&gt;(41 1 2) -->
<g id="edge41" class="edge">
<title>(27 6 2)&#45;&gt;(41 1 2)</title>
<path fill="none" stroke="black" d="M452.07,-792.41C458.97,-783.78 467.55,-773.06 475.2,-763.5"/>
<polygon fill="black" stroke="black" points="478.11,-765.47 481.62,-755.47 472.64,-761.09 478.11,-765.47"/>
</g>
<!-- (29 6 0) -->
<g id="node30" class="node">
<title>(29 6 0)</title>
<ellipse fill="none" stroke="black" cx="270.8" cy="-666" rx="46.59" ry="18"/>
<text text-anchor="middle" x="270.8" y="-662.3" font-family="Times,serif" font-size="14.00">(29 6 0)</text>
</g>
<!-- (28 6 1)&#45;&gt;(29 6 0) -->
<g id="edge29" class="edge">
<title>(28 6 1)&#45;&gt;(29 6 0)</title>
<path fill="none" stroke="black" d="M359.32,-722.33C343.04,-712.15 321.15,-698.47 303.21,-687.26"/>
<polygon fill="black" stroke="black" points="304.58,-683.99 294.24,-681.65 300.87,-689.92 304.58,-683.99"/>
</g>
<!-- (30 5 1) -->
<g id="node31" class="node">
<title>(30 5 1)</title>
<ellipse fill="none" stroke="black" cx="382.8" cy="-666" rx="46.59" ry="18"/>
<text text-anchor="middle" x="382.8" y="-662.3" font-family="Times,serif" font-size="14.00">(30 5 1)</text>
</g>
<!-- (28 6 1)&#45;&gt;(30 5 1) -->
<g id="edge30" class="edge">
<title>(28 6 1)&#45;&gt;(30 5 1)</title>
<path fill="none" stroke="black" d="M382.8,-719.7C382.8,-711.98 382.8,-702.71 382.8,-694.11"/>
<polygon fill="black" stroke="black" points="386.3,-694.1 382.8,-684.1 379.3,-694.1 386.3,-694.1"/>
</g>
<!-- (31 5 0) -->
<g id="node32" class="node">
<title>(31 5 0)</title>
<ellipse fill="none" stroke="black" cx="270.8" cy="-594" rx="46.59" ry="18"/>
<text text-anchor="middle" x="270.8" y="-590.3" font-family="Times,serif" font-size="14.00">(31 5 0)</text>
</g>
<!-- (30 5 1)&#45;&gt;(31 5 0) -->
<g id="edge31" class="edge">
<title>(30 5 1)&#45;&gt;(31 5 0)</title>
<path fill="none" stroke="black" d="M359.32,-650.33C343.04,-640.15 321.15,-626.47 303.21,-615.26"/>
<polygon fill="black" stroke="black" points="304.58,-611.99 294.24,-609.65 300.87,-617.92 304.58,-611.99"/>
</g>
<!-- (32 4 1) -->
<g id="node33" class="node">
<title>(32 4 1)</title>
<ellipse fill="none" stroke="black" cx="382.8" cy="-594" rx="46.59" ry="18"/>
<text text-anchor="middle" x="382.8" y="-590.3" font-family="Times,serif" font-size="14.00">(32 4 1)</text>
</g>
<!-- (30 5 1)&#45;&gt;(32 4 1) -->
<g id="edge32" class="edge">
<title>(30 5 1)&#45;&gt;(32 4 1)</title>
<path fill="none" stroke="black" d="M382.8,-647.7C382.8,-639.98 382.8,-630.71 382.8,-622.11"/>
<polygon fill="black" stroke="black" points="386.3,-622.1 382.8,-612.1 379.3,-622.1 386.3,-622.1"/>
</g>
<!-- (33 4 0) -->
<g id="node34" class="node">
<title>(33 4 0)</title>
<ellipse fill="none" stroke="black" cx="354.8" cy="-522" rx="46.59" ry="18"/>
<text text-anchor="middle" x="354.8" y="-518.3" font-family="Times,serif" font-size="14.00">(33 4 0)</text>
</g>
<!-- (32 4 1)&#45;&gt;(33 4 0) -->
<g id="edge33" class="edge">
<title>(32 4 1)&#45;&gt;(33 4 0)</title>
<path fill="none" stroke="black" d="M376.02,-576.05C372.87,-568.18 369.04,-558.62 365.51,-549.79"/>
<polygon fill="black" stroke="black" points="368.67,-548.26 361.71,-540.28 362.17,-550.86 368.67,-548.26"/>
</g>
<!-- (34 3 1) -->
<g id="node35" class="node">
<title>(34 3 1)</title>
<ellipse fill="none" stroke="black" cx="466.8" cy="-522" rx="46.59" ry="18"/>
<text text-anchor="middle" x="466.8" y="-518.3" font-family="Times,serif" font-size="14.00">(34 3 1)</text>
</g>
<!-- (32 4 1)&#45;&gt;(34 3 1) -->
<g id="edge34" class="edge">
<title>(32 4 1)&#45;&gt;(34 3 1)</title>
<path fill="none" stroke="black" d="M401.44,-577.46C412.78,-568.02 427.45,-555.79 440.02,-545.32"/>
<polygon fill="black" stroke="black" points="442.47,-547.82 447.92,-538.73 437.99,-542.45 442.47,-547.82"/>
</g>
<!-- (35 3 0) -->
<g id="node36" class="node">
<title>(35 3 0)</title>
<ellipse fill="none" stroke="black" cx="445.8" cy="-450" rx="46.59" ry="18"/>
<text text-anchor="middle" x="445.8" y="-446.3" font-family="Times,serif" font-size="14.00">(35 3 0)</text>
</g>
<!-- (34 3 1)&#45;&gt;(35 3 0) -->
<g id="edge35" class="edge">
<title>(34 3 1)&#45;&gt;(35 3 0)</title>
<path fill="none" stroke="black" d="M461.71,-504.05C459.37,-496.26 456.54,-486.82 453.92,-478.08"/>
<polygon fill="black" stroke="black" points="457.2,-476.85 450.98,-468.28 450.5,-478.86 457.2,-476.85"/>
</g>
<!-- (36 2 1) -->
<g id="node37" class="node">
<title>(36 2 1)</title>
<ellipse fill="none" stroke="black" cx="557.8" cy="-450" rx="46.59" ry="18"/>
<text text-anchor="middle" x="557.8" y="-446.3" font-family="Times,serif" font-size="14.00">(36 2 1)</text>
</g>
<!-- (34 3 1)&#45;&gt;(36 2 1) -->
<g id="edge36" class="edge">
<title>(34 3 1)&#45;&gt;(36 2 1)</title>
<path fill="none" stroke="black" d="M486.99,-505.46C499.48,-495.86 515.7,-483.38 529.46,-472.8"/>
<polygon fill="black" stroke="black" points="531.86,-475.36 537.66,-466.49 527.6,-469.81 531.86,-475.36"/>
</g>
<!-- (37 2 0) -->
<g id="node38" class="node">
<title>(37 2 0)</title>
<ellipse fill="none" stroke="black" cx="515.8" cy="-378" rx="46.59" ry="18"/>
<text text-anchor="middle" x="515.8" y="-374.3" font-family="Times,serif" font-size="14.00">(37 2 0)</text>
</g>
<!-- (36 2 1)&#45;&gt;(37 2 0) -->
<g id="edge37" class="edge">
<title>(36 2 1)&#45;&gt;(37 2 0)</title>
<path fill="none" stroke="black" d="M547.84,-432.41C542.89,-424.16 536.8,-414.01 531.26,-404.78"/>
<polygon fill="black" stroke="black" points="534.12,-402.73 525.97,-395.96 528.11,-406.33 534.12,-402.73"/>
</g>
<!-- (38 1 1) -->
<g id="node39" class="node">
<title>(38 1 1)</title>
<ellipse fill="none" stroke="black" cx="627.8" cy="-378" rx="46.59" ry="18"/>
<text text-anchor="middle" x="627.8" y="-374.3" font-family="Times,serif" font-size="14.00">(38 1 1)</text>
</g>
<!-- (36 2 1)&#45;&gt;(38 1 1) -->
<g id="edge38" class="edge">
<title>(36 2 1)&#45;&gt;(38 1 1)</title>
<path fill="none" stroke="black" d="M574.03,-432.76C583.04,-423.75 594.41,-412.39 604.37,-402.43"/>
<polygon fill="black" stroke="black" points="607.05,-404.69 611.65,-395.15 602.1,-399.74 607.05,-404.69"/>
</g>
<!-- (39 1 0) -->
<g id="node40" class="node">
<title>(39 1 0)</title>
<ellipse fill="none" stroke="black" cx="606.8" cy="-306" rx="46.59" ry="18"/>
<text text-anchor="middle" x="606.8" y="-302.3" font-family="Times,serif" font-size="14.00">(39 1 0)</text>
</g>
<!-- (38 1 1)&#45;&gt;(39 1 0) -->
<g id="edge39" class="edge">
<title>(38 1 1)&#45;&gt;(39 1 0)</title>
<path fill="none" stroke="black" d="M622.71,-360.05C620.37,-352.26 617.54,-342.82 614.92,-334.08"/>
<polygon fill="black" stroke="black" points="618.2,-332.85 611.98,-324.28 611.5,-334.86 618.2,-332.85"/>
</g>
<!-- (40 0 1) -->
<g id="node41" class="node">
<title>(40 0 1)</title>
<ellipse fill="none" stroke="black" cx="718.8" cy="-306" rx="46.59" ry="18"/>
<text text-anchor="middle" x="718.8" y="-302.3" font-family="Times,serif" font-size="14.00">(40 0 1)</text>
</g>
<!-- (38 1 1)&#45;&gt;(40 0 1) -->
<g id="edge40" class="edge">
<title>(38 1 1)&#45;&gt;(40 0 1)</title>
<path fill="none" stroke="black" d="M647.99,-361.46C660.48,-351.86 676.7,-339.38 690.46,-328.8"/>
<polygon fill="black" stroke="black" points="692.86,-331.36 698.66,-322.49 688.6,-325.81 692.86,-331.36"/>
</g>
<!-- (42 1 1) -->
<g id="node43" class="node">
<title>(42 1 1)</title>
<ellipse fill="none" stroke="black" cx="494.8" cy="-666" rx="46.59" ry="18"/>
<text text-anchor="middle" x="494.8" y="-662.3" font-family="Times,serif" font-size="14.00">(42 1 1)</text>
</g>
<!-- (41 1 2)&#45;&gt;(42 1 1) -->
<g id="edge42" class="edge">
<title>(41 1 2)&#45;&gt;(42 1 1)</title>
<path fill="none" stroke="black" d="M494.8,-719.7C494.8,-711.98 494.8,-702.71 494.8,-694.11"/>
<polygon fill="black" stroke="black" points="498.3,-694.1 494.8,-684.1 491.3,-694.1 498.3,-694.1"/>
</g>
<!-- (45 &#45;4 2) -->
<g id="node46" class="node">
<title>(45 &#45;4 2)</title>
<ellipse fill="none" stroke="black" cx="609.8" cy="-666" rx="50.09" ry="18"/>
<text text-anchor="middle" x="609.8" y="-662.3" font-family="Times,serif" font-size="14.00">(45 &#45;4 2)</text>
</g>
<!-- (41 1 2)&#45;&gt;(45 &#45;4 2) -->
<g id="edge45" class="edge">
<title>(41 1 2)&#45;&gt;(45 &#45;4 2)</title>
<path fill="none" stroke="black" d="M518.62,-722.5C535.36,-712.31 557.97,-698.55 576.49,-687.27"/>
<polygon fill="black" stroke="black" points="578.48,-690.16 585.2,-681.97 574.84,-684.18 578.48,-690.16"/>
</g>
<!-- (43 1 0) -->
<g id="node44" class="node">
<title>(43 1 0)</title>
<ellipse fill="none" stroke="black" cx="494.8" cy="-594" rx="46.59" ry="18"/>
<text text-anchor="middle" x="494.8" y="-590.3" font-family="Times,serif" font-size="14.00">(43 1 0)</text>
</g>
<!-- (42 1 1)&#45;&gt;(43 1 0) -->
<g id="edge43" class="edge">
<title>(42 1 1)&#45;&gt;(43 1 0)</title>
<path fill="none" stroke="black" d="M494.8,-647.7C494.8,-639.98 494.8,-630.71 494.8,-622.11"/>
<polygon fill="black" stroke="black" points="498.3,-622.1 494.8,-612.1 491.3,-622.1 498.3,-622.1"/>
</g>
<!-- (44 0 1) -->
<g id="node45" class="node">
<title>(44 0 1)</title>
<ellipse fill="none" stroke="black" cx="606.8" cy="-594" rx="46.59" ry="18"/>
<text text-anchor="middle" x="606.8" y="-590.3" font-family="Times,serif" font-size="14.00">(44 0 1)</text>
</g>
<!-- (42 1 1)&#45;&gt;(44 0 1) -->
<g id="edge44" class="edge">
<title>(42 1 1)&#45;&gt;(44 0 1)</title>
<path fill="none" stroke="black" d="M518.27,-650.33C534.55,-640.15 556.44,-626.47 574.38,-615.26"/>
<polygon fill="black" stroke="black" points="576.72,-617.92 583.35,-609.65 573.01,-611.99 576.72,-617.92"/>
</g>
<!-- (47 1 2) -->
<g id="node48" class="node">
<title>(47 1 2)</title>
<ellipse fill="none" stroke="black" cx="724.8" cy="-810" rx="46.59" ry="18"/>
<text text-anchor="middle" x="724.8" y="-806.3" font-family="Times,serif" font-size="14.00">(47 1 2)</text>
</g>
<!-- (46 1 3)&#45;&gt;(47 1 2) -->
<g id="edge47" class="edge">
<title>(46 1 3)&#45;&gt;(47 1 2)</title>
<path fill="none" stroke="black" d="M724.8,-863.7C724.8,-855.98 724.8,-846.71 724.8,-838.11"/>
<polygon fill="black" stroke="black" points="728.3,-838.1 724.8,-828.1 721.3,-838.1 728.3,-838.1"/>
</g>
<!-- (52 &#45;9 3) -->
<g id="node53" class="node">
<title>(52 &#45;9 3)</title>
<ellipse fill="none" stroke="black" cx="839.8" cy="-810" rx="50.09" ry="18"/>
<text text-anchor="middle" x="839.8" y="-806.3" font-family="Times,serif" font-size="14.00">(52 &#45;9 3)</text>
</g>
<!-- (46 1 3)&#45;&gt;(52 &#45;9 3) -->
<g id="edge52" class="edge">
<title>(46 1 3)&#45;&gt;(52 &#45;9 3)</title>
<path fill="none" stroke="black" d="M748.62,-866.5C765.36,-856.31 787.97,-842.55 806.49,-831.27"/>
<polygon fill="black" stroke="black" points="808.48,-834.16 815.2,-825.97 804.84,-828.18 808.48,-834.16"/>
</g>
<!-- (48 1 1) -->
<g id="node49" class="node">
<title>(48 1 1)</title>
<ellipse fill="none" stroke="black" cx="724.8" cy="-738" rx="46.59" ry="18"/>
<text text-anchor="middle" x="724.8" y="-734.3" font-family="Times,serif" font-size="14.00">(48 1 1)</text>
</g>
<!-- (47 1 2)&#45;&gt;(48 1 1) -->
<g id="edge48" class="edge">
<title>(47 1 2)&#45;&gt;(48 1 1)</title>
<path fill="none" stroke="black" d="M724.8,-791.7C724.8,-783.98 724.8,-774.71 724.8,-766.11"/>
<polygon fill="black" stroke="black" points="728.3,-766.1 724.8,-756.1 721.3,-766.1 728.3,-766.1"/>
</g>
<!-- (51 &#45;4 2) -->
<g id="node52" class="node">
<title>(51 &#45;4 2)</title>
<ellipse fill="none" stroke="black" cx="839.8" cy="-738" rx="50.09" ry="18"/>
<text text-anchor="middle" x="839.8" y="-734.3" font-family="Times,serif" font-size="14.00">(51 &#45;4 2)</text>
</g>
<!-- (47 1 2)&#45;&gt;(51 &#45;4 2) -->
<g id="edge51" class="edge">
<title>(47 1 2)&#45;&gt;(51 &#45;4 2)</title>
<path fill="none" stroke="black" d="M748.62,-794.5C765.36,-784.31 787.97,-770.55 806.49,-759.27"/>
<polygon fill="black" stroke="black" points="808.48,-762.16 815.2,-753.97 804.84,-756.18 808.48,-762.16"/>
</g>
<!-- (49 1 0) -->
<g id="node50" class="node">
<title>(49 1 0)</title>
<ellipse fill="none" stroke="black" cx="724.8" cy="-666" rx="46.59" ry="18"/>
<text text-anchor="middle" x="724.8" y="-662.3" font-family="Times,serif" font-size="14.00">(49 1 0)</text>
</g>
<!-- (48 1 1)&#45;&gt;(49 1 0) -->
<g id="edge49" class="edge">
<title>(48 1 1)&#45;&gt;(49 1 0)</title>
<path fill="none" stroke="black" d="M724.8,-719.7C724.8,-711.98 724.8,-702.71 724.8,-694.11"/>
<polygon fill="black" stroke="black" points="728.3,-694.1 724.8,-684.1 721.3,-694.1 728.3,-694.1"/>
</g>
<!-- (50 0 1) -->
<g id="node51" class="node">
<title>(50 0 1)</title>
<ellipse fill="none" stroke="black" cx="836.8" cy="-666" rx="46.59" ry="18"/>
<text text-anchor="middle" x="836.8" y="-662.3" font-family="Times,serif" font-size="14.00">(50 0 1)</text>
</g>
<!-- (48 1 1)&#45;&gt;(50 0 1) -->
<g id="edge50" class="edge">
<title>(48 1 1)&#45;&gt;(50 0 1)</title>
<path fill="none" stroke="black" d="M748.27,-722.33C764.55,-712.15 786.44,-698.47 804.38,-687.26"/>
<polygon fill="black" stroke="black" points="806.72,-689.92 813.35,-681.65 803.01,-683.99 806.72,-689.92"/>
</g>
</g>
</svg>
