<?xml version="1.0" encoding="UTF-8" standalone="no"?>
<!DOCTYPE svg PUBLIC "-//W3C//DTD SVG 1.1//EN"
 "http://www.w3.org/Graphics/SVG/1.1/DTD/svg11.dtd">
<!-- Generated by graphviz version 2.50.0 (0)
 -->
<!-- Pages: 1 -->
<svg width="426pt" height="404pt"
 viewBox="0.00 0.00 425.84 404.00" xmlns="http://www.w3.org/2000/svg" xmlns:xlink="http://www.w3.org/1999/xlink">
<g id="page0,1_graph0" class="graph" transform="scale(1 1) rotate(0) translate(4 400)">
<polygon fill="white" stroke="transparent" points="-4,4 -4,-400 421.84,-400 421.84,4 -4,4"/>
<!-- (0 1 5) -->
<g id="node1" class="node">
<title>(0 1 5)</title>
<ellipse fill="none" stroke="black" cx="303.95" cy="-378" rx="40.89" ry="18"/>
<text text-anchor="middle" x="303.95" y="-374.3" font-family="Times,serif" font-size="14.00">(0 1 5)</text>
</g>
<!-- (1 1 4) -->
<g id="node2" class="node">
<title>(1 1 4)</title>
<ellipse fill="none" stroke="black" cx="246.95" cy="-306" rx="40.89" ry="18"/>
<text text-anchor="middle" x="246.95" y="-302.3" font-family="Times,serif" font-size="14.00">(1 1 4)</text>
</g>
<!-- (0 1 5)&#45;&gt;(1 1 4) -->
<g id="edge1" class="edge">
<title>(0 1 5)&#45;&gt;(1 1 4)</title>
<path fill="none" stroke="black" d="M290.73,-360.76C283.53,-351.93 274.49,-340.83 266.5,-331.01"/>
<polygon fill="black" stroke="black" points="269.12,-328.69 260.09,-323.15 263.7,-333.11 269.12,-328.69"/>
</g>
<!-- (10 &#45;49 5) -->
<g id="node11" class="node">
<title>(10 &#45;49 5)</title>
<ellipse fill="none" stroke="black" cx="361.95" cy="-306" rx="55.79" ry="18"/>
<text text-anchor="middle" x="361.95" y="-302.3" font-family="Times,serif" font-size="14.00">(10 &#45;49 5)</text>
</g>
<!-- (0 1 5)&#45;&gt;(10 &#45;49 5) -->
<g id="edge10" class="edge">
<title>(0 1 5)&#45;&gt;(10 &#45;49 5)</title>
<path fill="none" stroke="black" d="M317.4,-360.76C324.61,-352.06 333.65,-341.15 341.7,-331.43"/>
<polygon fill="black" stroke="black" points="344.48,-333.57 348.16,-323.63 339.09,-329.1 344.48,-333.57"/>
</g>
<!-- (2 1 3) -->
<g id="node3" class="node">
<title>(2 1 3)</title>
<ellipse fill="none" stroke="black" cx="192.95" cy="-234" rx="40.89" ry="18"/>
<text text-anchor="middle" x="192.95" y="-230.3" font-family="Times,serif" font-size="14.00">(2 1 3)</text>
</g>
<!-- (1 1 4)&#45;&gt;(2 1 3) -->
<g id="edge2" class="edge">
<title>(1 1 4)&#45;&gt;(2 1 3)</title>
<path fill="none" stroke="black" d="M234.42,-288.76C227.67,-280.02 219.21,-269.05 211.7,-259.31"/>
<polygon fill="black" stroke="black" points="214.28,-256.93 205.4,-251.15 208.74,-261.2 214.28,-256.93"/>
</g>
<!-- (9 &#45;24 4) -->
<g id="node10" class="node">
<title>(9 &#45;24 4)</title>
<ellipse fill="none" stroke="black" cx="301.95" cy="-234" rx="50.09" ry="18"/>
<text text-anchor="middle" x="301.95" y="-230.3" font-family="Times,serif" font-size="14.00">(9 &#45;24 4)</text>
</g>
<!-- (1 1 4)&#45;&gt;(9 &#45;24 4) -->
<g id="edge9" class="edge">
<title>(1 1 4)&#45;&gt;(9 &#45;24 4)</title>
<path fill="none" stroke="black" d="M259.7,-288.76C266.48,-280.14 274.95,-269.36 282.52,-259.73"/>
<polygon fill="black" stroke="black" points="285.45,-261.66 288.88,-251.63 279.95,-257.33 285.45,-261.66"/>
</g>
<!-- (3 1 2) -->
<g id="node4" class="node">
<title>(3 1 2)</title>
<ellipse fill="none" stroke="black" cx="141.95" cy="-162" rx="40.89" ry="18"/>
<text text-anchor="middle" x="141.95" y="-158.3" font-family="Times,serif" font-size="14.00">(3 1 2)</text>
</g>
<!-- (2 1 3)&#45;&gt;(3 1 2) -->
<g id="edge3" class="edge">
<title>(2 1 3)&#45;&gt;(3 1 2)</title>
<path fill="none" stroke="black" d="M181.12,-216.76C174.84,-208.14 166.98,-197.36 159.96,-187.73"/>
<polygon fill="black" stroke="black" points="162.78,-185.65 154.06,-179.63 157.12,-189.78 162.78,-185.65"/>
</g>
<!-- (8 &#45;9 3) -->
<g id="node9" class="node">
<title>(8 &#45;9 3)</title>
<ellipse fill="none" stroke="black" cx="244.95" cy="-162" rx="44.39" ry="18"/>
<text text-anchor="middle" x="244.95" y="-158.3" font-family="Times,serif" font-size="14.00">(8 &#45;9 3)</text>
</g>
<!-- (2 1 3)&#45;&gt;(8 &#45;9 3) -->
<g id="edge8" class="edge">
<title>(2 1 3)&#45;&gt;(8 &#45;9 3)</title>
<path fill="none" stroke="black" d="M205.01,-216.76C211.41,-208.14 219.42,-197.36 226.58,-187.73"/>
<polygon fill="black" stroke="black" points="229.44,-189.75 232.59,-179.63 223.82,-185.57 229.44,-189.75"/>
</g>
<!-- (4 1 1) -->
<g id="node5" class="node">
<title>(4 1 1)</title>
<ellipse fill="none" stroke="black" cx="90.95" cy="-90" rx="40.89" ry="18"/>
<text text-anchor="middle" x="90.95" y="-86.3" font-family="Times,serif" font-size="14.00">(4 1 1)</text>
</g>
<!-- (3 1 2)&#45;&gt;(4 1 1) -->
<g id="edge4" class="edge">
<title>(3 1 2)&#45;&gt;(4 1 1)</title>
<path fill="none" stroke="black" d="M130.12,-144.76C123.84,-136.14 115.98,-125.36 108.96,-115.73"/>
<polygon fill="black" stroke="black" points="111.78,-113.65 103.06,-107.63 106.12,-117.78 111.78,-113.65"/>
</g>
<!-- (7 &#45;4 2) -->
<g id="node8" class="node">
<title>(7 &#45;4 2)</title>
<ellipse fill="none" stroke="black" cx="193.95" cy="-90" rx="44.39" ry="18"/>
<text text-anchor="middle" x="193.95" y="-86.3" font-family="Times,serif" font-size="14.00">(7 &#45;4 2)</text>
</g>
<!-- (3 1 2)&#45;&gt;(7 &#45;4 2) -->
<g id="edge7" class="edge">
<title>(3 1 2)&#45;&gt;(7 &#45;4 2)</title>
<path fill="none" stroke="black" d="M154.01,-144.76C160.41,-136.14 168.42,-125.36 175.58,-115.73"/>
<polygon fill="black" stroke="black" points="178.44,-117.75 181.59,-107.63 172.82,-113.57 178.44,-117.75"/>
</g>
<!-- (5 1 0) -->
<g id="node6" class="node">
<title>(5 1 0)</title>
<ellipse fill="none" stroke="black" cx="40.95" cy="-18" rx="40.89" ry="18"/>
<text text-anchor="middle" x="40.95" y="-14.3" font-family="Times,serif" font-size="14.00">(5 1 0)</text>
</g>
<!-- (4 1 1)&#45;&gt;(5 1 0) -->
<g id="edge5" class="edge">
<title>(4 1 1)&#45;&gt;(5 1 0)</title>
<path fill="none" stroke="black" d="M79.1,-72.41C72.99,-63.87 65.43,-53.28 58.65,-43.79"/>
<polygon fill="black" stroke="black" points="61.37,-41.57 52.71,-35.47 55.67,-45.64 61.37,-41.57"/>
</g>
<!-- (6 0 1) -->
<g id="node7" class="node">
<title>(6 0 1)</title>
<ellipse fill="none" stroke="black" cx="140.95" cy="-18" rx="40.89" ry="18"/>
<text text-anchor="middle" x="140.95" y="-14.3" font-family="Times,serif" font-size="14.00">(6 0 1)</text>
</g>
<!-- (4 1 1)&#45;&gt;(6 0 1) -->
<g id="edge6" class="edge">
<title>(4 1 1)&#45;&gt;(6 0 1)</title>
<path fill="none" stroke="black" d="M102.8,-72.41C108.9,-63.87 116.46,-53.28 123.24,-43.79"/>
<polygon fill="black" stroke="black" points="126.22,-45.64 129.18,-35.47 120.52,-41.57 126.22,-45.64"/>
</g>
</g>
</svg>
